<svg width="240" height="240" xmlns="http://www.w3.org/2000/svg"><g fill="none" fill-rule="evenodd"><path d="M119.646 141.24l-2.599-1.046c-.117.362-3.585 5.528-3.585 5.528-9.283-.434-13.885 3.546-11.544 3.546h15.052s0-.002.002-.002a1.003 1.003 0 00.328-1.56l-1.089-1.267 3.435-5.199z" fill="#BAA3A5"/><path d="M152.4 158.559c2.74 4.265-3.954 8.745-6.777 4.357l-15.166-23.576c-2.736-4.257 3.95-8.755 6.777-4.357l15.166 23.576" fill="#7ED321"/><path d="M161.124 161.776c2.743 4.265-3.954 8.745-6.774 4.358l-15.166-23.576c-2.74-4.258 3.947-8.754 6.774-4.358l15.166 23.576" fill="#1DA029"/><path d="M124.56 100.315l-23.31 6.138-19.803-27.13c8.005-15.224 37.35-5.985 43.113 20.992z" fill="#3197F4"/><path d="M81.447 79.322s6.757-5.315 13.112-2.305c6.356 3.01 6.356 9.7 4.436 17.202-.957 3.74-5.001 4.3-7.446 2.2l-4.349-3.68-4.72-9.622-1.033-3.795z" fill="#DADCE0"/><path d="M84.073 99.97s-.887-2.548.518-5.057c1.74 1.226 4.059 1.728 6.958 1.505-.892-8.028-4.26-13.726-10.102-17.096-5.686 4.476-5.58 16.68 2.626 20.649z" fill="#121212"/><path d="M91.77 80.185a1.762 1.762 0 11-3.524 0 1.762 1.762 0 013.524 0" fill="#212123"/><path d="M126.494 136.888c0 3.382-2.844 6.123-6.35 6.123-3.505 0-6.348-2.741-6.348-6.123 0-3.38 2.843-6.12 6.349-6.12 3.505 0 6.349 2.74 6.349 6.12" fill="#ECB323"/><path d="M93.221 114.48c10.035 18.956 28.99 28.433 56.864 28.433l-18.062-36.46-32.35-14.644-8.124 4.61c-.288.424-2.734 9.74 1.672 18.062z" fill="#FCCD03"/><path d="M127.005 132.878c3.677-.003 10.039-7.485 13.38-8.362 2.376-.625 1.868 5.58 3.89 4.484 4.295 10.451 9.175 17.543 9.175 17.543-7.235-2.291-18.47-6.825-26.445-13.665z" fill="#363538"/><path d="M144.275 129c-4.867 2.637-10.717 4.173-17.009 4.18-8.89-7.619-21.799-19.312-26.238-27.284-11.58-20.797 14.32-23.12 27.937-5.378 6.152 8.012 11.44 19.068 15.31 28.482" fill="#095FB5"/></g></svg>