<svg width="420" height="140" xmlns="http://www.w3.org/2000/svg"><g fill="none" fill-rule="evenodd"><path d="M71.925 88.725l-2.72-1.095c-.122.38-3.751 5.784-3.751 5.784-9.713-.453-14.529 3.711-12.079 3.711h15.75c0-.001 0-.002.002-.003a1.05 1.05 0 00.343-1.631l-1.14-1.326 3.595-5.44z" fill="#BAA3A5"/><path d="M106.197 106.846c2.867 4.463-4.137 9.15-7.09 4.559l-15.87-24.668c-2.863-4.455 4.134-9.16 7.091-4.56l15.87 24.67" fill="#7ED321"/><path d="M115.325 110.212c2.87 4.463-4.137 9.151-7.087 4.56l-15.87-24.669c-2.866-4.455 4.13-9.16 7.088-4.56l15.87 24.67" fill="#1DA029"/><path d="M77.067 45.902l-24.392 6.423-20.72-28.389c8.376-15.928 39.081-6.261 45.112 21.966z" fill="#3197F4"/><path d="M31.955 23.936s7.07-5.561 13.72-2.411 6.65 10.15 4.641 18c-1.001 3.912-5.233 4.5-7.791 2.3l-4.55-3.85-4.938-10.068-1.082-3.97z" fill="#DADCE0"/><path d="M34.703 45.542s-.928-2.667.542-5.292c1.82 1.283 4.247 1.808 7.28 1.575-.933-8.4-4.457-14.363-10.57-17.889-5.95 4.684-5.838 17.454 2.748 21.606z" fill="#121212"/><path d="M42.756 24.84a1.843 1.843 0 11-3.687-.001 1.843 1.843 0 013.687 0" fill="#212123"/><path d="M79.09 84.171c0 3.538-2.975 6.406-6.643 6.406-3.668 0-6.643-2.868-6.643-6.406 0-3.537 2.975-6.405 6.643-6.405 3.668 0 6.643 2.868 6.643 6.405" fill="#ECB323"/><path d="M44.275 60.725c10.5 19.833 30.333 29.75 59.5 29.75l-18.9-38.15-33.848-15.323-8.502 4.823c-.301.445-2.86 10.192 1.75 18.9z" fill="#FCCD03"/><path d="M79.625 79.975c3.848-.003 10.504-7.832 14-8.75 2.486-.653 1.954 5.839 4.07 4.692 4.495 10.936 9.601 18.356 9.601 18.356-7.57-2.397-19.327-7.141-27.671-14.298z" fill="#363538"/><path d="M97.696 75.917c-5.093 2.76-11.214 4.367-17.798 4.373-9.303-7.971-22.81-20.206-27.454-28.548-12.117-21.76 14.984-24.192 29.232-5.627 6.437 8.383 11.97 19.952 16.02 29.802" fill="#095FB5"/><path d="M174.504 88.25V54.867l13.233 33.383h3.525l13.167-33.383V88.25h10.706V40.703H201.17l-10.972 29.592-11.106-29.593h-14.23V88.25h9.642zm59.95.732c4.655 0 8.157-1.64 10.507-4.921v4.189h9.376V65.574c0-8.601-4.854-12.901-14.563-12.901-4.478 0-8.136.997-10.973 2.992-2.837 1.995-4.389 4.965-4.655 8.911h9.11c.444-3.28 2.417-4.921 5.92-4.921 2.083 0 3.546.52 4.388 1.563.842 1.042 1.264 2.649 1.264 4.821v1.396h-3.924c-12.059 0-18.088 3.724-18.088 11.172 0 3.458 1.086 6.052 3.259 7.781 2.172 1.729 4.965 2.593 8.379 2.593zm2.86-6.717c-3.37 0-5.055-1.396-5.055-4.19 0-1.773.743-3.036 2.228-3.79 1.485-.754 3.69-1.13 6.617-1.13h3.724v2.925c0 1.907-.71 3.414-2.128 4.523-1.419 1.108-3.215 1.662-5.387 1.662zm41.86 6.717c4.966 0 8.912-1.275 11.838-3.824 2.926-2.55 4.522-5.93 4.788-10.141h-8.712c-.221 2.172-1.02 3.834-2.394 4.987s-3.059 1.729-5.054 1.729c-2.704 0-4.799-.898-6.284-2.693-1.485-1.796-2.228-4.423-2.228-7.88v-.532c0-3.281.754-5.83 2.261-7.648 1.508-1.818 3.525-2.727 6.052-2.727 4.034 0 6.384 1.973 7.049 5.919h9.11c-.399-4.655-2.117-8.069-5.153-10.241-3.037-2.172-6.772-3.258-11.206-3.258-5.098 0-9.365 1.65-12.8 4.954-3.437 3.303-5.155 7.68-5.155 13.133v.532c0 5.542 1.674 9.876 5.021 13.001 3.347 3.126 7.637 4.689 12.868 4.689zm32.885 0c4.655 0 8.157-1.64 10.507-4.921v4.189h9.377V65.574c0-8.601-4.855-12.901-14.564-12.901-4.478 0-8.135.997-10.972 2.992-2.838 1.995-4.39 4.965-4.655 8.911h9.11c.443-3.28 2.416-4.921 5.919-4.921 2.083 0 3.546.52 4.389 1.563.842 1.042 1.263 2.649 1.263 4.821v1.396h-3.923c-12.059 0-18.088 3.724-18.088 11.172 0 3.458 1.086 6.052 3.258 7.781 2.172 1.729 4.965 2.593 8.38 2.593zm2.86-6.717c-3.37 0-5.054-1.396-5.054-4.19 0-1.773.742-3.036 2.227-3.79 1.486-.754 3.691-1.13 6.617-1.13h3.724v2.925c0 1.907-.71 3.414-2.128 4.523-1.419 1.108-3.214 1.662-5.386 1.662zm42.393 5.985l6.384-21.812 5.919 21.812h9.443l10.972-34.78h-9.243l-6.584 23.409-6.118-23.408h-7.913l-6.717 23.408-6.184-23.408h-10.108l10.573 34.779h9.576z" fill="#363538" fill-rule="nonzero"/></g></svg>