<svg width="16" height="27" xmlns="http://www.w3.org/2000/svg"><g fill="none" fill-rule="evenodd"><path fill="#171A23" d="M-240-255H80V769h-320z"/><path stroke="#22252E" fill="none" d="M-240.5-62.5h321v140h-321z"/><g transform="translate(-216 -15)"><rect fill-opacity=".06" fill="#FFF" width="272" height="72" rx="10"/><g opacity=".8"><path d="M229.083 15.667h-9.333a2.918 2.918 0 00-2.917 2.916v19.834a2.918 2.918 0 002.917 2.916h9.333A2.918 2.918 0 00232 38.417V18.583a2.918 2.918 0 00-2.917-2.916zm-4.666 24.5c-.969 0-1.75-.782-1.75-1.75 0-.969.781-1.75 1.75-1.75.968 0 1.75.781 1.75 1.75 0 .968-.782 1.75-1.75 1.75zm5.25-4.667h-10.5V19.167h10.5V35.5z" fill="#FFF" fill-rule="nonzero"/><path d="M211 14.5h28v28h-28z"/></g></g></g></svg>